<?xml version="1.0" encoding="UTF-8" standalone="no"?>
<!-- Created with Inkscape (http://www.inkscape.org/) -->

<svg
   xmlns:dc="http://purl.org/dc/elements/1.1/"
   xmlns:cc="http://creativecommons.org/ns#"
   xmlns:rdf="http://www.w3.org/1999/02/22-rdf-syntax-ns#"
   xmlns:svg="http://www.w3.org/2000/svg"
   xmlns="http://www.w3.org/2000/svg"
   xmlns:xlink="http://www.w3.org/1999/xlink"
   xmlns:sodipodi="http://sodipodi.sourceforge.net/DTD/sodipodi-0.dtd"
   xmlns:inkscape="http://www.inkscape.org/namespaces/inkscape"
   id="nar-logo"
   version="1.1"
   inkscape:version="0.48.2 r9819"
   width="1566.397"
   height="212.54066"
   sodipodi:docname="nar-banner.svg"
   inkscape:export-xdpi="17.832226"
   inkscape:export-ydpi="17.832226">
  <metadata
     id="metadata3063">
    <rdf:RDF>
      <cc:Work
         rdf:about="">
        <dc:format>image/svg+xml</dc:format>
        <dc:type
           rdf:resource="http://purl.org/dc/dcmitype/StillImage" />
        <dc:title></dc:title>
      </cc:Work>
    </rdf:RDF>
  </metadata>
  <sodipodi:namedview
     pagecolor="#ffffff"
     bordercolor="#666666"
     borderopacity="1"
     objecttolerance="10"
     gridtolerance="10"
     guidetolerance="10"
     inkscape:pageopacity="0"
     inkscape:pageshadow="2"
     inkscape:window-width="1138"
     inkscape:window-height="569"
     id="namedview3061"
     showgrid="false"
     fit-margin-top="0"
     fit-margin-left="0"
     fit-margin-right="0"
     fit-margin-bottom="0"
     inkscape:zoom="0.41688027"
     inkscape:cx="783.19849"
     inkscape:cy="106.27033"
     inkscape:window-x="0"
     inkscape:window-y="0"
     inkscape:window-maximized="0"
     inkscape:current-layer="nar-logo" />
  <defs
     id="nar-defs">
    <linearGradient
       id="baseGradient">
      <stop
         id="stop1"
         offset="0"
         style="stop-color:#c0c0c0;stop-opacity:1;" />
      <stop
         id="stop2"
         offset="0.175"
         style="stop-color:#606060;stop-opacity:1" />
      <stop
         id="stop3"
         offset="0.86500001"
         style="stop-color:#606060;stop-opacity:1" />
      <stop
         id="stop4"
         offset="1"
         style="stop-color:#909090;stop-opacity:1;" />
    </linearGradient>
    <linearGradient
       id="barGradient"
       inkscape:collect="always"
       xlink:href="#baseGradient"
       x1="0"
       y1="142"
       x2="0"
       y2="151"
       gradientUnits="userSpaceOnUse"
       gradientTransform="matrix(3.4052041,0,0,1,-4.1316761e-8,-142)" />
    <linearGradient
       id="bar2Gradient"
       inkscape:collect="always"
       xlink:href="#baseGradient"
       x1="0"
       y1="142"
       x2="0"
       y2="151"
       gradientUnits="userSpaceOnUse"
       gradientTransform="matrix(3.4052108,0,0,1,-1566.397,-336)" />
    <filter
       inkscape:collect="always"
       id="blur-filter"
       color-interpolation-filters="sRGB">
      <feGaussianBlur
         inkscape:collect="always"
         stdDeviation="0.5"
         id="gaussian-blue" />
    </filter>
    <filter
       inkscape:collect="always"
       id="filter4736"
       x="-0.022843076"
       width="1.0456862"
       y="-0.16975793"
       height="1.3395159">
      <feGaussianBlur
         inkscape:collect="always"
         stdDeviation="9.762738"
         id="feGaussianBlur4738" />
    </filter>
  </defs>
  <rect
     ry="0"
     y="0"
     x="0"
     height="9"
     width="1566.394"
     id="bar"
     style="fill:url(#barGradient);fill-opacity:1;fill-rule:evenodd;stroke:none"
     inkscape:export-xdpi="29.690722"
     inkscape:export-ydpi="29.690722" />
  <rect
     style="fill:url(#bar2Gradient);fill-opacity:1;fill-rule:evenodd;stroke:none"
     id="bar2"
     width="1566.397"
     height="9"
     x="-1566.397"
     y="-194"
     ry="0"
     transform="scale(-1,-1)"
     inkscape:export-xdpi="29.690722"
     inkscape:export-ydpi="29.690722" />
  <g
     id="NAR"
     inkscape:export-xdpi="29.690722"
     inkscape:export-ydpi="29.690722"
     transform="translate(1.2,-142)">
    <path
       sodipodi:nodetypes="ccccccccccc"
       inkscape:connector-curvature="0"
       id="N"
       d="m 0,165 43,0 54,102 0,-102 36,0 0,149 -42,0 -54,-102 0,102 -37,0 z"
       style="fill:#000000;fill-opacity:1;filter:url(#blur-filter)" />
    <path
       inkscape:connector-curvature="0"
       id="A"
       d="m 207,166 -54,148 38,0 9,-27 60,0 9,27 38,0 -54,-148 -46,0 z m 23,36 20,57 -40,0 20,-57 z"
       style="fill:#000000;fill-opacity:1;filter:url(#blur-filter)" />
    <path
       id="R"
       d="m 327,165 0,150 39,0 0,-56 15,0 c 4,0 10,3 13,6 3,4 6,9 6,9 l 20,41 41,0 c 0,0 -26,-53 -30,-58 -4,-5 -8,-12 -19,-12 17,-6 29,-15 29,-37 1,-23 -9,-43 -50,-43 l -64,0 z m 39,28 22,0 c 10,0 15,8 15,19 0,11 -6,18 -15,18 l -22,0 0,-37 z"
       style="fill:#000000;fill-opacity:1;filter:url(#blur-filter)"
       inkscape:connector-curvature="0" />
  </g>
  <g
     transform="matrix(1.03111,0,0,1.2683161,3.0875358,-229.3725)"
     style="font-size:40px;font-style:normal;font-weight:normal;line-height:125%;letter-spacing:0px;word-spacing:0px;fill:#ffffff;fill-opacity:1;stroke:none;font-family:Sans"
     id="flowRoot3092">
    <path
       inkscape:connector-curvature="0"
       d="m 514.71875,249.62656 c -2.90629,0.0469 -5.67191,0.7735 -8.29688,2.17969 -2.62503,1.35943 -4.94534,3.21099 -6.96093,5.55469 l 0,30.375 c 0.7031,0.79689 1.54685,1.59376 2.53125,2.39062 0.98434,0.79689 2.0859,1.52345 3.30468,2.17969 1.21872,0.65626 2.55466,1.19533 4.00782,1.61719 1.49996,0.42188 3.04683,0.63282 4.64062,0.63281 2.57808,1e-5 4.87496,-0.53905 6.89063,-1.61719 2.01557,-1.12498 3.67963,-2.69529 4.99218,-4.71094 1.35933,-2.0156 2.39058,-4.40622 3.09375,-7.17187 0.70307,-2.81247 1.05464,-5.92966 1.05469,-9.35156 -5e-5,-3.65621 -0.37505,-6.86715 -1.125,-9.63282 -0.70318,-2.76557 -1.73443,-5.06245 -3.09375,-6.89062 -1.31255,-1.82807 -2.9063,-3.21088 -4.78125,-4.14844 -1.87504,-0.93744 -3.96098,-1.40619 -6.25781,-1.40625 m 2.17969,58.21875 c -3.65629,0 -6.98441,-0.65625 -9.98438,-1.96875 -2.95315,-1.35937 -5.41409,-3.02343 -7.38281,-4.99219 l -0.28125,0 c 0.0469,0.93751 0.0937,2.27345 0.14062,4.00782 0.0469,1.6875 0.0703,3.53906 0.0703,5.55468 l 0,28.33594 -16.66407,0 0,-100.82812 14.625,0 0.70313,7.66406 0.28125,0 c 2.06247,-2.71869 4.71091,-4.94525 7.94531,-6.67969 3.23434,-1.78118 6.98434,-2.6718 11.25,-2.67187 3.70308,7e-5 7.33589,0.70319 10.89844,2.10937 3.60932,1.35944 6.79681,3.46882 9.5625,6.32813 2.76556,2.85943 4.96868,6.4688 6.60937,10.82812 1.68743,4.35942 2.53118,9.53911 2.53125,15.53906 -7e-5,6.32816 -0.89069,11.81253 -2.67187,16.45313 -1.78132,4.59376 -4.12507,8.41407 -7.03125,11.46094 -2.90631,3 -6.14068,5.22656 -9.70313,6.67968 -3.51567,1.45313 -7.14848,2.17969 -10.89843,2.17969"
       style="font-size:144px;font-variant:normal;font-weight:bold;font-stretch:normal;text-align:start;writing-mode:lr-tb;text-anchor:start;fill:#ffffff;font-family:Corbel;-inkscape-font-specification:Corbel Bold"
       id="path3943" />
    <path
       inkscape:connector-curvature="0"
       d="m 562.8125,306.0875 0,-101.8125 16.66406,0 0,101.8125 -16.66406,0"
       style="font-size:144px;font-variant:normal;font-weight:bold;font-stretch:normal;text-align:start;writing-mode:lr-tb;text-anchor:start;fill:#ffffff;font-family:Corbel;-inkscape-font-specification:Corbel Bold"
       id="path3945" />
    <path
       inkscape:connector-curvature="0"
       d="m 628.48437,307.84531 c -6.84378,0 -12.51565,-1.14844 -17.01562,-3.44531 -4.50002,-2.34375 -7.89845,-5.48437 -10.19531,-9.42188 -1.21876,-2.10936 -2.13282,-4.42967 -2.74219,-6.96093 -0.56251,-2.53123 -0.84376,-5.34373 -0.84375,-8.4375 l 0,-41.625 16.66406,0 0,39.86718 c -2e-5,2.29691 0.16404,4.28909 0.49219,5.97657 0.3281,1.64064 0.82029,3.07033 1.47656,4.28906 1.12497,2.06252 2.71872,3.60939 4.78125,4.64062 2.06247,0.98439 4.5234,1.47658 7.38281,1.47657 2.99996,10e-6 5.55465,-0.56249 7.66407,-1.6875 2.1562,-1.12499 3.77338,-2.83592 4.85156,-5.13282 1.07807,-2.2031 1.61713,-5.27341 1.61719,-9.21093 l 0,-40.21875 16.66406,0 0,41.625 c -7e-5,5.53127 -0.96101,10.19533 -2.88281,13.99218 -1.07819,2.15627 -2.48444,4.12501 -4.21875,5.90625 -1.68756,1.73438 -3.70319,3.23438 -6.04688,4.5 -2.29693,1.21876 -4.92192,2.15625 -7.875,2.8125 -2.90629,0.70313 -6.1641,1.05469 -9.77344,1.05469"
       style="font-size:144px;font-variant:normal;font-weight:bold;font-stretch:normal;text-align:start;writing-mode:lr-tb;text-anchor:start;fill:#ffffff;font-family:Corbel;-inkscape-font-specification:Corbel Bold"
       id="path3947" />
    <path
       inkscape:connector-curvature="0"
       d="m 721.08594,307.84531 c -6e-5,-0.9375 -6e-5,-2.08593 0,-3.44531 0.0468,-1.40625 0.11713,-2.57812 0.21093,-3.51563 l -0.14062,0 c -1.0313,0.84376 -2.22661,1.68751 -3.58594,2.53125 -1.31255,0.79688 -2.76567,1.54688 -4.35937,2.25 -1.5938,0.65625 -3.35161,1.17188 -5.27344,1.54688 -1.92191,0.42187 -3.89066,0.63281 -5.90625,0.63281 -3.60941,0 -7.14846,-0.63281 -10.61719,-1.89844 -3.42189,-1.31249 -6.46876,-3.35155 -9.14062,-6.11718 -2.67189,-2.81249 -4.82814,-6.39843 -6.46875,-10.75782 -1.64063,-4.35935 -2.46095,-9.60934 -2.46094,-15.75 -10e-6,-6.14058 0.82031,-11.50776 2.46094,-16.10156 1.68749,-4.64057 3.91405,-8.50775 6.67968,-11.60156 2.76561,-3.09369 5.92967,-5.414 9.49219,-6.96094 3.60935,-1.59368 7.31247,-2.39055 11.10938,-2.39062 4.17183,7e-5 7.87495,0.89069 11.10937,2.67187 3.23433,1.73444 5.88276,3.961 7.94531,6.67969 l 0.28125,0 0.70313,-7.66406 14.625,0 0,69.39843 c -7e-5,3.98437 -0.32819,7.40625 -0.98438,10.26563 -0.65631,2.85936 -1.61725,5.39061 -2.88281,7.59375 -1.50006,2.5781 -3.42194,4.8281 -5.76562,6.75 -2.29694,1.92185 -4.94537,3.5156 -7.94532,4.78125 -2.95317,1.26559 -6.21098,2.20309 -9.77343,2.8125 -3.56254,0.65622 -7.33598,0.98434 -11.32032,0.98437 -2.25002,-3e-5 -4.45315,-0.0938 -6.60937,-0.28125 -2.15627,-0.14065 -4.19533,-0.37503 -6.11719,-0.70312 -1.87501,-0.28128 -3.60939,-0.63285 -5.20312,-1.05469 -1.54689,-0.37503 -2.85939,-0.77347 -3.9375,-1.19531 l 0,-13.57031 c 3.09373,1.03123 6.32811,1.80467 9.70312,2.32031 3.42185,0.56248 7.00779,0.84373 10.75781,0.84375 7.45309,-2e-5 13.21871,-1.45314 17.29688,-4.35938 4.07807,-2.85938 6.11713,-7.21875 6.11719,-13.07812 l 0,-1.61719 m -14.90625,-13.28906 c 1.68746,1e-5 3.28121,-0.21093 4.78125,-0.63281 1.49995,-0.42186 2.88276,-0.96093 4.14843,-1.61719 1.26558,-0.65624 2.39058,-1.3828 3.375,-2.17969 1.0312,-0.79686 1.89839,-1.59373 2.60157,-2.39062 l 0,-30.44532 c -1.7813,-2.10932 -3.98443,-3.86713 -6.60938,-5.27343 -2.62504,-1.4062 -5.4141,-2.13276 -8.36719,-2.17969 -1.03128,6e-5 -2.13284,0.14068 -3.30468,0.42187 -1.12504,0.23444 -2.27347,0.67975 -3.44532,1.33594 -1.1719,0.65631 -2.2969,1.54693 -3.375,2.67188 -1.03127,1.07817 -1.94533,2.46098 -2.74218,4.14843 -0.7969,1.68755 -1.45315,3.70317 -1.96875,6.04688 -0.46878,2.34379 -0.70315,5.06254 -0.70313,8.15625 -2e-5,3.42191 0.3281,6.49221 0.98438,9.21094 0.65622,2.67189 1.6406,4.96877 2.95312,6.89062 1.31247,1.87502 2.92966,3.32814 4.85156,4.35938 1.96872,0.98438 4.24216,1.47657 6.82032,1.47656"
       style="font-size:144px;font-variant:normal;font-weight:bold;font-stretch:normal;text-align:start;writing-mode:lr-tb;text-anchor:start;fill:#ffffff;font-family:Corbel;-inkscape-font-specification:Corbel Bold"
       id="path3949" />
    <path
       inkscape:connector-curvature="0"
       d="m 756.59375,237.95469 16.66406,0 0,68.13281 -16.66406,0 0,-68.13281 m -0.42188,-33.67969 17.50782,0 0,18.07031 -17.50782,0 0,-18.07031"
       style="font-size:144px;font-variant:normal;font-weight:bold;font-stretch:normal;text-align:start;writing-mode:lr-tb;text-anchor:start;fill:#ffffff;font-family:Corbel;-inkscape-font-specification:Corbel Bold"
       id="path3951" />
    <path
       inkscape:connector-curvature="0"
       d="m 807.21875,247.44687 0.28125,0 c 0.98435,-1.40618 2.22654,-2.789 3.72656,-4.14843 1.49997,-1.35931 3.21091,-2.55462 5.13281,-3.58594 1.92184,-1.03118 4.03122,-1.85149 6.32813,-2.46094 2.34371,-0.65618 4.82808,-0.9843 7.45312,-0.98437 2.48433,7e-5 4.87495,0.28132 7.17188,0.84375 2.34369,0.56257 4.4765,1.45319 6.39844,2.67187 1.92181,1.17194 3.60931,2.71882 5.0625,4.64063 1.49993,1.87506 2.6718,4.12506 3.51562,6.75 0.46868,1.45318 0.77337,3.04692 0.91406,4.78125 0.18743,1.68755 0.28118,3.65629 0.28125,5.90625 l 0,44.22656 -16.66406,0 0,-41.625 c -5e-5,-1.82808 -0.0704,-3.39839 -0.21094,-4.71094 -0.14067,-1.31245 -0.39849,-2.46089 -0.77343,-3.44531 -0.8438,-2.1562 -2.13287,-3.70307 -3.86719,-4.64063 -1.68755,-0.93744 -3.75005,-1.40619 -6.1875,-1.40625 -3.23441,6e-5 -6.3516,0.7735 -9.35156,2.32032 -2.95316,1.50005 -5.57816,3.70317 -7.875,6.60937 l 0,46.89844 -16.66407,0 0,-68.13281 13.78125,0 1.54688,9.49218"
       style="font-size:144px;font-variant:normal;font-weight:bold;font-stretch:normal;text-align:start;writing-mode:lr-tb;text-anchor:start;fill:#ffffff;font-family:Corbel;-inkscape-font-specification:Corbel Bold"
       id="path3953" />
    <path
       inkscape:connector-curvature="0"
       d="m 944.25781,217.775 c -1.82817,-0.46866 -3.72661,-0.84366 -5.69531,-1.125 -1.92192,-0.32804 -3.75004,-0.4921 -5.48438,-0.49219 -1.87503,9e-5 -3.53909,0.23447 -4.99218,0.70313 -1.45316,0.42196 -2.69535,1.14852 -3.72657,2.17968 -0.9844,1.03134 -1.7344,2.36728 -2.25,4.00782 -0.51565,1.6407 -0.77346,3.63289 -0.77343,5.97656 l 0,8.92969 18.91406,0 0,13.71093 -18.91406,0 0,54.42188 -16.66407,0 0,-54.42188 -11.53125,0 0,-13.71093 11.53125,0 0,-8.08594 c -10e-6,-4.78117 0.65624,-8.88273 1.96875,-12.30469 1.35936,-3.46866 3.23436,-6.30459 5.625,-8.50781 2.39061,-2.2499 5.2031,-3.89052 8.4375,-4.92188 3.23435,-1.07802 6.74997,-1.61708 10.54688,-1.61718 2.34371,1e-4 4.66402,0.21104 6.96094,0.63281 2.3437,0.3751 4.35932,0.84385 6.04687,1.40625 l 0,13.21875"
       style="font-size:144px;font-variant:normal;font-weight:bold;font-stretch:normal;text-align:start;writing-mode:lr-tb;text-anchor:start;fill:#ffffff;font-family:Corbel;-inkscape-font-specification:Corbel Bold"
       id="path3955" />
    <path
       inkscape:connector-curvature="0"
       d="m 996.57031,272.05625 c -5e-5,-3.60934 -0.42193,-6.79683 -1.26562,-9.5625 -0.84381,-2.76558 -2.01568,-5.08589 -3.51563,-6.96094 -1.50005,-1.87495 -3.30473,-3.28119 -5.41406,-4.21875 -2.10942,-0.93744 -4.40629,-1.40619 -6.89063,-1.40625 -2.43753,6e-5 -4.71097,0.46881 -6.82031,1.40625 -2.06253,0.93756 -3.84378,2.3438 -5.34375,4.21875 -1.50002,1.87505 -2.6719,4.19536 -3.51562,6.96094 -0.84378,2.76567 -1.26565,5.95316 -1.26563,9.5625 -2e-5,3.60941 0.42185,6.7969 1.26563,9.5625 0.84372,2.76565 2.0156,5.08596 3.51562,6.96094 1.54685,1.82814 3.35153,3.23439 5.41406,4.21875 2.10934,0.93751 4.40622,1.40626 6.89063,1.40625 2.48433,10e-6 4.75777,-0.46874 6.82031,-1.40625 2.06245,-0.98436 3.8437,-2.39061 5.34375,-4.21875 1.49995,-1.87498 2.67182,-4.19529 3.51563,-6.96094 0.84369,-2.7656 1.26557,-5.95309 1.26562,-9.5625 m 17.22659,0 c -1e-4,5.34378 -0.797,10.21877 -2.3907,14.625 -1.5938,4.40626 -3.8906,8.1797 -6.8906,11.32031 -2.9532,3.14063 -6.5391,5.57813 -10.75779,7.3125 -4.2188,1.6875 -8.92973,2.53125 -14.13281,2.53125 -5.34378,0 -10.14847,-0.84375 -14.41406,-2.53125 -4.21877,-1.73437 -7.80471,-4.17187 -10.75782,-7.3125 -2.95313,-3.14061 -5.22657,-6.91405 -6.82031,-11.32031 -1.54688,-4.40623 -2.32032,-9.28122 -2.32031,-14.625 -10e-6,-5.34371 0.79687,-10.21871 2.39062,-14.625 1.59375,-4.4062 3.86718,-8.17963 6.82032,-11.32031 2.99998,-3.14056 6.60935,-5.55462 10.82812,-7.24219 4.21872,-1.73431 8.92966,-2.60149 14.13281,-2.60156 5.34371,7e-5 10.12496,0.86725 14.34375,2.60156 4.26557,1.68757 7.87498,4.10163 10.82808,7.24219 2.9531,3.14068 5.2031,6.91411 6.75,11.32031 1.5937,4.40629 2.3906,9.28129 2.3907,14.625"
       style="font-size:144px;font-variant:normal;font-weight:bold;font-stretch:normal;text-align:start;writing-mode:lr-tb;text-anchor:start;fill:#ffffff;font-family:Corbel;-inkscape-font-specification:Corbel Bold"
       id="path3957" />
    <path
       inkscape:connector-curvature="0"
       d="m 1069.2031,251.17344 -1.4062,0 c -5.1094,5e-5 -9.6094,0.77349 -13.5,2.32031 -3.8438,1.50005 -6.8204,3.82036 -8.9297,6.96094 l 0,45.63281 -16.6641,0 0,-68.13281 13.7813,0 1.5469,9.49218 0.2812,0 c 1.9687,-3.46868 4.664,-6.18743 8.0859,-8.15625 3.4688,-2.01555 7.6172,-3.02336 12.4454,-3.02343 1.6874,7e-5 3.1405,0.0938 4.3593,0.28125 l 0,14.625"
       style="font-size:144px;font-variant:normal;font-weight:bold;font-stretch:normal;text-align:start;writing-mode:lr-tb;text-anchor:start;fill:#ffffff;font-family:Corbel;-inkscape-font-specification:Corbel Bold"
       id="path3959" />
    <path
       inkscape:connector-curvature="0"
       d="m 1159.3438,280.84531 c 2.0624,-7.40621 4.6171,-15.35152 7.664,-23.83594 l 16.2422,-45 24.1875,0 0,94.07813 -17.2266,0 0,-47.67188 c -10e-5,-6.98432 0.2812,-15.09368 0.8438,-24.32812 l -0.6328,0 c -0.797,2.67194 -1.7345,5.67194 -2.8125,9 -1.0782,3.32818 -2.2032,6.60943 -3.375,9.84375 l -19.4766,53.15625 -11.1094,0 -19.4765,-53.15625 c -1.1719,-3.23432 -2.2969,-6.51557 -3.375,-9.84375 -1.0782,-3.32806 -2.0157,-6.32806 -2.8125,-9 l -0.6328,0 c 0.5624,8.67194 0.8437,16.75787 0.8437,24.25781 l 0,47.74219 -17.2265,0 0,-94.07813 24.0468,0 16.2422,44.78907 c 2.7187,7.45316 5.2734,15.46878 7.6641,24.04687 l 0.4219,0"
       style="font-size:144px;font-variant:normal;font-weight:bold;font-stretch:normal;text-align:start;writing-mode:lr-tb;text-anchor:start;fill:#ffffff;font-family:Corbel;-inkscape-font-specification:Corbel Bold"
       id="path3961" />
    <path
       inkscape:connector-curvature="0"
       d="m 1267.9063,298.84531 -0.2813,0 c -0.9375,0.98438 -2.0625,1.9922 -3.375,3.02344 -1.3125,1.03125 -2.8125,2.01563 -4.5,2.95312 -1.6875,0.89063 -3.5625,1.61719 -5.625,2.17969 -2.0625,0.5625 -4.2891,0.84375 -6.6797,0.84375 -3.2344,0 -6.2578,-0.51562 -9.0703,-1.54687 -2.8125,-0.98438 -5.2266,-2.41406 -7.2422,-4.28907 -2.0156,-1.92186 -3.6094,-4.21874 -4.7812,-6.89062 -1.125,-2.71874 -1.6875,-5.74217 -1.6875,-9.07031 0,-3.65623 0.6562,-6.93748 1.9687,-9.84375 1.3594,-2.90622 3.2344,-5.36715 5.625,-7.38282 2.3906,-2.01558 5.25,-3.53902 8.5781,-4.57031 3.3281,-1.07808 7.0078,-1.61714 11.0391,-1.61719 2.9531,5e-5 5.6718,0.18755 8.1563,0.5625 2.4843,0.37505 4.664,0.82036 6.539,1.33594 l 0,-2.74219 c 0,-1.5937 -0.2813,-3.11714 -0.8437,-4.57031 -0.5157,-1.49995 -1.3829,-2.81245 -2.6016,-3.9375 -1.1719,-1.17182 -2.7188,-2.08588 -4.6406,-2.74219 -1.9219,-0.70306 -4.2657,-1.05463 -7.0313,-1.05468 -3.375,5e-5 -6.75,0.37505 -10.125,1.125 -3.375,0.75005 -7.0312,1.87505 -10.9687,3.375 l 0,-13.00782 c 3.4218,-1.49993 7.0546,-2.64836 10.8984,-3.44531 3.8437,-0.7968 7.875,-1.21868 12.0938,-1.26562 4.9687,7e-5 9.3046,0.60944 13.0078,1.82812 3.7499,1.21882 6.8671,2.90632 9.3515,5.0625 2.5312,2.10944 4.4062,4.61725 5.625,7.52344 1.2656,2.9063 1.8984,6.07036 1.8985,9.49219 l 0,25.66406 c -10e-5,4.50002 0.047,8.3672 0.1406,11.60156 0.094,3.23438 0.1874,6.11719 0.2813,8.64844 l -15.0469,0 -0.7031,-7.24219 m -1.336,-21.79687 c -1.5938,-0.37497 -3.4219,-0.7031 -5.4844,-0.98438 -2.0625,-0.32809 -4.1484,-0.49215 -6.2578,-0.49219 -4.0781,4e-5 -7.3125,0.82035 -9.7031,2.46094 -2.3438,1.59378 -3.5156,4.05471 -3.5156,7.38281 0,1.5469 0.2578,2.90627 0.7734,4.07813 0.5625,1.12502 1.2891,2.06251 2.1797,2.8125 0.9375,0.75001 2.0156,1.31251 3.2344,1.6875 1.2187,0.37501 2.5078,0.56251 3.8672,0.5625 1.6874,1e-5 3.2812,-0.21093 4.7812,-0.63281 1.5,-0.46874 2.8828,-1.03124 4.1485,-1.6875 1.2655,-0.70311 2.3905,-1.47655 3.375,-2.32032 1.0312,-0.84373 1.8983,-1.66404 2.6015,-2.46093 l 0,-10.40625"
       style="font-size:144px;font-variant:normal;font-weight:bold;font-stretch:normal;text-align:start;writing-mode:lr-tb;text-anchor:start;fill:#ffffff;font-family:Corbel;-inkscape-font-specification:Corbel Bold"
       id="path3963" />
    <path
       inkscape:connector-curvature="0"
       d="m 1362.9688,237.95469 -26.3672,68.13281 -16.5235,0 -26.4375,-68.13281 17.5782,0 9.4921,26.01562 c 2.7188,7.31254 5.2031,14.62503 7.4532,21.9375 l 0.2812,0 c 1.9687,-6.3281 4.4062,-13.49996 7.3125,-21.51562 l 9.4922,-26.4375 17.7188,0"
       style="font-size:144px;font-variant:normal;font-weight:bold;font-stretch:normal;text-align:start;writing-mode:lr-tb;text-anchor:start;fill:#ffffff;font-family:Corbel;-inkscape-font-specification:Corbel Bold"
       id="path3965" />
    <path
       inkscape:connector-curvature="0"
       d="m 1408.0391,294.41562 c 3.2343,2e-5 6.6093,-0.32811 10.125,-0.98437 3.5155,-0.65624 7.078,-1.59374 10.6875,-2.8125 l 0,13.28906 c -2.1564,0.9375 -5.461,1.82813 -9.9141,2.67188 -4.4532,0.84375 -9.0704,1.26562 -13.8516,1.26562 -4.8281,0 -9.4219,-0.60937 -13.7812,-1.82812 -4.3125,-1.26563 -8.086,-3.28125 -11.3203,-6.04688 -3.2344,-2.76561 -5.8125,-6.35155 -7.7344,-10.75781 -1.875,-4.40623 -2.8125,-9.74997 -2.8125,-16.03125 0,-6.18746 0.8906,-11.60152 2.6719,-16.24219 1.7812,-4.64057 4.1718,-8.48431 7.1719,-11.53125 2.9999,-3.04681 6.4218,-5.32024 10.2656,-6.82031 3.8906,-1.54681 7.8984,-2.32024 12.0234,-2.32031 4.3125,7e-5 8.2734,0.65632 11.8828,1.96875 3.6562,1.31256 6.7968,3.37506 9.4219,6.1875 2.6718,2.81256 4.7343,6.44537 6.1875,10.89843 1.4999,4.4063 2.2499,9.63286 2.25,15.67969 -0.047,2.34379 -0.1173,4.33597 -0.2109,5.97656 l -44.6485,0 c 0.2344,3.14066 0.9375,5.83597 2.1094,8.08594 1.1718,2.20315 2.6953,4.00783 4.5703,5.41406 1.9219,1.35939 4.1484,2.36721 6.6797,3.02344 2.5312,0.60939 5.2734,0.91408 8.2266,0.91406 m -6.6797,-45.14062 c -2.1094,6e-5 -3.9844,0.39849 -5.625,1.19531 -1.6407,0.75006 -3.0704,1.80474 -4.2891,3.16406 -1.1719,1.31256 -2.1094,2.85943 -2.8125,4.64063 -0.7031,1.7813 -1.1719,3.67973 -1.4062,5.69531 l 26.789,0 c 0,-2.01558 -0.2813,-3.91401 -0.8437,-5.69531 -0.5157,-1.7812 -1.3126,-3.32807 -2.3906,-4.64063 -1.0313,-1.35932 -2.3438,-2.414 -3.9375,-3.16406 -1.547,-0.79682 -3.3751,-1.19525 -5.4844,-1.19531"
       style="font-size:144px;font-variant:normal;font-weight:bold;font-stretch:normal;text-align:start;writing-mode:lr-tb;text-anchor:start;fill:#ffffff;font-family:Corbel;-inkscape-font-specification:Corbel Bold"
       id="path3967" />
    <path
       inkscape:connector-curvature="0"
       d="m 1462.25,247.44687 0.2813,0 c 0.9843,-1.40618 2.2265,-2.789 3.7265,-4.14843 1.5,-1.35931 3.2109,-2.55462 5.1328,-3.58594 1.9219,-1.03118 4.0312,-1.85149 6.3282,-2.46094 2.3437,-0.65618 4.828,-0.9843 7.4531,-0.98437 2.4843,7e-5 4.8749,0.28132 7.1719,0.84375 2.3436,0.56257 4.4765,1.45319 6.3984,2.67187 1.9218,1.17194 3.6093,2.71882 5.0625,4.64063 1.4999,1.87506 2.6718,4.12506 3.5156,6.75 0.4687,1.45318 0.7734,3.04692 0.9141,4.78125 0.1874,1.68755 0.2812,3.65629 0.2812,5.90625 l 0,44.22656 -16.664,0 0,-41.625 c -10e-5,-1.82808 -0.07,-3.39839 -0.211,-4.71094 -0.1407,-1.31245 -0.3985,-2.46089 -0.7734,-3.44531 -0.8438,-2.1562 -2.1329,-3.70307 -3.8672,-4.64063 -1.6875,-0.93744 -3.75,-1.40619 -6.1875,-1.40625 -3.2344,6e-5 -6.3516,0.7735 -9.3516,2.32032 -2.9531,1.50005 -5.5781,3.70317 -7.875,6.60937 l 0,46.89844 -16.664,0 0,-68.13281 13.7812,0 1.5469,9.49218"
       style="font-size:144px;font-variant:normal;font-weight:bold;font-stretch:normal;text-align:start;writing-mode:lr-tb;text-anchor:start;fill:#ffffff;font-family:Corbel;-inkscape-font-specification:Corbel Bold"
       id="path3969" />
  </g>
  <g
     transform="matrix(1.03111,0,0,1.2683161,10.948049,-219.3725)"
     style="font-size:40px;font-style:normal;font-weight:normal;line-height:125%;letter-spacing:0px;word-spacing:0px;fill:#333333;fill-opacity:1;stroke:none;filter:url(#filter4736);font-family:Sans"
     id="flowRoot3065">
    <path
       inkscape:connector-curvature="0"
       d="m 514.71875,249.62656 c -2.90629,0.0469 -5.67191,0.7735 -8.29688,2.17969 -2.62503,1.35943 -4.94534,3.21099 -6.96093,5.55469 l 0,30.375 c 0.7031,0.79689 1.54685,1.59376 2.53125,2.39062 0.98434,0.79689 2.0859,1.52345 3.30468,2.17969 1.21872,0.65626 2.55466,1.19533 4.00782,1.61719 1.49996,0.42188 3.04683,0.63282 4.64062,0.63281 2.57808,1e-5 4.87496,-0.53905 6.89063,-1.61719 2.01557,-1.12498 3.67963,-2.69529 4.99218,-4.71094 1.35933,-2.0156 2.39058,-4.40622 3.09375,-7.17187 0.70307,-2.81247 1.05464,-5.92966 1.05469,-9.35156 -5e-5,-3.65621 -0.37505,-6.86715 -1.125,-9.63282 -0.70318,-2.76557 -1.73443,-5.06245 -3.09375,-6.89062 -1.31255,-1.82807 -2.9063,-3.21088 -4.78125,-4.14844 -1.87504,-0.93744 -3.96098,-1.40619 -6.25781,-1.40625 m 2.17969,58.21875 c -3.65629,0 -6.98441,-0.65625 -9.98438,-1.96875 -2.95315,-1.35937 -5.41409,-3.02343 -7.38281,-4.99219 l -0.28125,0 c 0.0469,0.93751 0.0937,2.27345 0.14062,4.00782 0.0469,1.6875 0.0703,3.53906 0.0703,5.55468 l 0,28.33594 -16.66407,0 0,-100.82812 14.625,0 0.70313,7.66406 0.28125,0 c 2.06247,-2.71869 4.71091,-4.94525 7.94531,-6.67969 3.23434,-1.78118 6.98434,-2.6718 11.25,-2.67187 3.70308,7e-5 7.33589,0.70319 10.89844,2.10937 3.60932,1.35944 6.79681,3.46882 9.5625,6.32813 2.76556,2.85943 4.96868,6.4688 6.60937,10.82812 1.68743,4.35942 2.53118,9.53911 2.53125,15.53906 -7e-5,6.32816 -0.89069,11.81253 -2.67187,16.45313 -1.78132,4.59376 -4.12507,8.41407 -7.03125,11.46094 -2.90631,3 -6.14068,5.22656 -9.70313,6.67968 -3.51567,1.45313 -7.14848,2.17969 -10.89843,2.17969"
       style="font-size:144px;font-variant:normal;font-weight:bold;font-stretch:normal;text-align:start;writing-mode:lr-tb;text-anchor:start;fill:#333333;fill-opacity:1;font-family:Corbel;-inkscape-font-specification:Corbel Bold"
       id="path3914" />
    <path
       inkscape:connector-curvature="0"
       d="m 562.8125,306.0875 0,-101.8125 16.66406,0 0,101.8125 -16.66406,0"
       style="font-size:144px;font-variant:normal;font-weight:bold;font-stretch:normal;text-align:start;writing-mode:lr-tb;text-anchor:start;fill:#333333;fill-opacity:1;font-family:Corbel;-inkscape-font-specification:Corbel Bold"
       id="path3916" />
    <path
       inkscape:connector-curvature="0"
       d="m 628.48437,307.84531 c -6.84378,0 -12.51565,-1.14844 -17.01562,-3.44531 -4.50002,-2.34375 -7.89845,-5.48437 -10.19531,-9.42188 -1.21876,-2.10936 -2.13282,-4.42967 -2.74219,-6.96093 -0.56251,-2.53123 -0.84376,-5.34373 -0.84375,-8.4375 l 0,-41.625 16.66406,0 0,39.86718 c -2e-5,2.29691 0.16404,4.28909 0.49219,5.97657 0.3281,1.64064 0.82029,3.07033 1.47656,4.28906 1.12497,2.06252 2.71872,3.60939 4.78125,4.64062 2.06247,0.98439 4.5234,1.47658 7.38281,1.47657 2.99996,10e-6 5.55465,-0.56249 7.66407,-1.6875 2.1562,-1.12499 3.77338,-2.83592 4.85156,-5.13282 1.07807,-2.2031 1.61713,-5.27341 1.61719,-9.21093 l 0,-40.21875 16.66406,0 0,41.625 c -7e-5,5.53127 -0.96101,10.19533 -2.88281,13.99218 -1.07819,2.15627 -2.48444,4.12501 -4.21875,5.90625 -1.68756,1.73438 -3.70319,3.23438 -6.04688,4.5 -2.29693,1.21876 -4.92192,2.15625 -7.875,2.8125 -2.90629,0.70313 -6.1641,1.05469 -9.77344,1.05469"
       style="font-size:144px;font-variant:normal;font-weight:bold;font-stretch:normal;text-align:start;writing-mode:lr-tb;text-anchor:start;fill:#333333;fill-opacity:1;font-family:Corbel;-inkscape-font-specification:Corbel Bold"
       id="path3918" />
    <path
       inkscape:connector-curvature="0"
       d="m 721.08594,307.84531 c -6e-5,-0.9375 -6e-5,-2.08593 0,-3.44531 0.0468,-1.40625 0.11713,-2.57812 0.21093,-3.51563 l -0.14062,0 c -1.0313,0.84376 -2.22661,1.68751 -3.58594,2.53125 -1.31255,0.79688 -2.76567,1.54688 -4.35937,2.25 -1.5938,0.65625 -3.35161,1.17188 -5.27344,1.54688 -1.92191,0.42187 -3.89066,0.63281 -5.90625,0.63281 -3.60941,0 -7.14846,-0.63281 -10.61719,-1.89844 -3.42189,-1.31249 -6.46876,-3.35155 -9.14062,-6.11718 -2.67189,-2.81249 -4.82814,-6.39843 -6.46875,-10.75782 -1.64063,-4.35935 -2.46095,-9.60934 -2.46094,-15.75 -10e-6,-6.14058 0.82031,-11.50776 2.46094,-16.10156 1.68749,-4.64057 3.91405,-8.50775 6.67968,-11.60156 2.76561,-3.09369 5.92967,-5.414 9.49219,-6.96094 3.60935,-1.59368 7.31247,-2.39055 11.10938,-2.39062 4.17183,7e-5 7.87495,0.89069 11.10937,2.67187 3.23433,1.73444 5.88276,3.961 7.94531,6.67969 l 0.28125,0 0.70313,-7.66406 14.625,0 0,69.39843 c -7e-5,3.98437 -0.32819,7.40625 -0.98438,10.26563 -0.65631,2.85936 -1.61725,5.39061 -2.88281,7.59375 -1.50006,2.5781 -3.42194,4.8281 -5.76562,6.75 -2.29694,1.92185 -4.94537,3.5156 -7.94532,4.78125 -2.95317,1.26559 -6.21098,2.20309 -9.77343,2.8125 -3.56254,0.65622 -7.33598,0.98434 -11.32032,0.98437 -2.25002,-3e-5 -4.45315,-0.0938 -6.60937,-0.28125 -2.15627,-0.14065 -4.19533,-0.37503 -6.11719,-0.70312 -1.87501,-0.28128 -3.60939,-0.63285 -5.20312,-1.05469 -1.54689,-0.37503 -2.85939,-0.77347 -3.9375,-1.19531 l 0,-13.57031 c 3.09373,1.03123 6.32811,1.80467 9.70312,2.32031 3.42185,0.56248 7.00779,0.84373 10.75781,0.84375 7.45309,-2e-5 13.21871,-1.45314 17.29688,-4.35938 4.07807,-2.85938 6.11713,-7.21875 6.11719,-13.07812 l 0,-1.61719 m -14.90625,-13.28906 c 1.68746,1e-5 3.28121,-0.21093 4.78125,-0.63281 1.49995,-0.42186 2.88276,-0.96093 4.14843,-1.61719 1.26558,-0.65624 2.39058,-1.3828 3.375,-2.17969 1.0312,-0.79686 1.89839,-1.59373 2.60157,-2.39062 l 0,-30.44532 c -1.7813,-2.10932 -3.98443,-3.86713 -6.60938,-5.27343 -2.62504,-1.4062 -5.4141,-2.13276 -8.36719,-2.17969 -1.03128,6e-5 -2.13284,0.14068 -3.30468,0.42187 -1.12504,0.23444 -2.27347,0.67975 -3.44532,1.33594 -1.1719,0.65631 -2.2969,1.54693 -3.375,2.67188 -1.03127,1.07817 -1.94533,2.46098 -2.74218,4.14843 -0.7969,1.68755 -1.45315,3.70317 -1.96875,6.04688 -0.46878,2.34379 -0.70315,5.06254 -0.70313,8.15625 -2e-5,3.42191 0.3281,6.49221 0.98438,9.21094 0.65622,2.67189 1.6406,4.96877 2.95312,6.89062 1.31247,1.87502 2.92966,3.32814 4.85156,4.35938 1.96872,0.98438 4.24216,1.47657 6.82032,1.47656"
       style="font-size:144px;font-variant:normal;font-weight:bold;font-stretch:normal;text-align:start;writing-mode:lr-tb;text-anchor:start;fill:#333333;fill-opacity:1;font-family:Corbel;-inkscape-font-specification:Corbel Bold"
       id="path3920" />
    <path
       inkscape:connector-curvature="0"
       d="m 756.59375,237.95469 16.66406,0 0,68.13281 -16.66406,0 0,-68.13281 m -0.42188,-33.67969 17.50782,0 0,18.07031 -17.50782,0 0,-18.07031"
       style="font-size:144px;font-variant:normal;font-weight:bold;font-stretch:normal;text-align:start;writing-mode:lr-tb;text-anchor:start;fill:#333333;fill-opacity:1;font-family:Corbel;-inkscape-font-specification:Corbel Bold"
       id="path3922" />
    <path
       inkscape:connector-curvature="0"
       d="m 807.21875,247.44687 0.28125,0 c 0.98435,-1.40618 2.22654,-2.789 3.72656,-4.14843 1.49997,-1.35931 3.21091,-2.55462 5.13281,-3.58594 1.92184,-1.03118 4.03122,-1.85149 6.32813,-2.46094 2.34371,-0.65618 4.82808,-0.9843 7.45312,-0.98437 2.48433,7e-5 4.87495,0.28132 7.17188,0.84375 2.34369,0.56257 4.4765,1.45319 6.39844,2.67187 1.92181,1.17194 3.60931,2.71882 5.0625,4.64063 1.49993,1.87506 2.6718,4.12506 3.51562,6.75 0.46868,1.45318 0.77337,3.04692 0.91406,4.78125 0.18743,1.68755 0.28118,3.65629 0.28125,5.90625 l 0,44.22656 -16.66406,0 0,-41.625 c -5e-5,-1.82808 -0.0704,-3.39839 -0.21094,-4.71094 -0.14067,-1.31245 -0.39849,-2.46089 -0.77343,-3.44531 -0.8438,-2.1562 -2.13287,-3.70307 -3.86719,-4.64063 -1.68755,-0.93744 -3.75005,-1.40619 -6.1875,-1.40625 -3.23441,6e-5 -6.3516,0.7735 -9.35156,2.32032 -2.95316,1.50005 -5.57816,3.70317 -7.875,6.60937 l 0,46.89844 -16.66407,0 0,-68.13281 13.78125,0 1.54688,9.49218"
       style="font-size:144px;font-variant:normal;font-weight:bold;font-stretch:normal;text-align:start;writing-mode:lr-tb;text-anchor:start;fill:#333333;fill-opacity:1;font-family:Corbel;-inkscape-font-specification:Corbel Bold"
       id="path3924" />
    <path
       inkscape:connector-curvature="0"
       d="m 944.25781,217.775 c -1.82817,-0.46866 -3.72661,-0.84366 -5.69531,-1.125 -1.92192,-0.32804 -3.75004,-0.4921 -5.48438,-0.49219 -1.87503,9e-5 -3.53909,0.23447 -4.99218,0.70313 -1.45316,0.42196 -2.69535,1.14852 -3.72657,2.17968 -0.9844,1.03134 -1.7344,2.36728 -2.25,4.00782 -0.51565,1.6407 -0.77346,3.63289 -0.77343,5.97656 l 0,8.92969 18.91406,0 0,13.71093 -18.91406,0 0,54.42188 -16.66407,0 0,-54.42188 -11.53125,0 0,-13.71093 11.53125,0 0,-8.08594 c -10e-6,-4.78117 0.65624,-8.88273 1.96875,-12.30469 1.35936,-3.46866 3.23436,-6.30459 5.625,-8.50781 2.39061,-2.2499 5.2031,-3.89052 8.4375,-4.92188 3.23435,-1.07802 6.74997,-1.61708 10.54688,-1.61718 2.34371,1e-4 4.66402,0.21104 6.96094,0.63281 2.3437,0.3751 4.35932,0.84385 6.04687,1.40625 l 0,13.21875"
       style="font-size:144px;font-variant:normal;font-weight:bold;font-stretch:normal;text-align:start;writing-mode:lr-tb;text-anchor:start;fill:#333333;fill-opacity:1;font-family:Corbel;-inkscape-font-specification:Corbel Bold"
       id="path3926" />
    <path
       inkscape:connector-curvature="0"
       d="m 996.57031,272.05625 c -5e-5,-3.60934 -0.42193,-6.79683 -1.26562,-9.5625 -0.84381,-2.76558 -2.01568,-5.08589 -3.51563,-6.96094 -1.50005,-1.87495 -3.30473,-3.28119 -5.41406,-4.21875 -2.10942,-0.93744 -4.40629,-1.40619 -6.89063,-1.40625 -2.43753,6e-5 -4.71097,0.46881 -6.82031,1.40625 -2.06253,0.93756 -3.84378,2.3438 -5.34375,4.21875 -1.50002,1.87505 -2.6719,4.19536 -3.51562,6.96094 -0.84378,2.76567 -1.26565,5.95316 -1.26563,9.5625 -2e-5,3.60941 0.42185,6.7969 1.26563,9.5625 0.84372,2.76565 2.0156,5.08596 3.51562,6.96094 1.54685,1.82814 3.35153,3.23439 5.41406,4.21875 2.10934,0.93751 4.40622,1.40626 6.89063,1.40625 2.48433,10e-6 4.75777,-0.46874 6.82031,-1.40625 2.06245,-0.98436 3.8437,-2.39061 5.34375,-4.21875 1.49995,-1.87498 2.67182,-4.19529 3.51563,-6.96094 0.84369,-2.7656 1.26557,-5.95309 1.26562,-9.5625 m 17.22659,0 c -1e-4,5.34378 -0.797,10.21877 -2.3907,14.625 -1.5938,4.40626 -3.8906,8.1797 -6.8906,11.32031 -2.9532,3.14063 -6.5391,5.57813 -10.75779,7.3125 -4.2188,1.6875 -8.92973,2.53125 -14.13281,2.53125 -5.34378,0 -10.14847,-0.84375 -14.41406,-2.53125 -4.21877,-1.73437 -7.80471,-4.17187 -10.75782,-7.3125 -2.95313,-3.14061 -5.22657,-6.91405 -6.82031,-11.32031 -1.54688,-4.40623 -2.32032,-9.28122 -2.32031,-14.625 -10e-6,-5.34371 0.79687,-10.21871 2.39062,-14.625 1.59375,-4.4062 3.86718,-8.17963 6.82032,-11.32031 2.99998,-3.14056 6.60935,-5.55462 10.82812,-7.24219 4.21872,-1.73431 8.92966,-2.60149 14.13281,-2.60156 5.34371,7e-5 10.12496,0.86725 14.34375,2.60156 4.26557,1.68757 7.87498,4.10163 10.82808,7.24219 2.9531,3.14068 5.2031,6.91411 6.75,11.32031 1.5937,4.40629 2.3906,9.28129 2.3907,14.625"
       style="font-size:144px;font-variant:normal;font-weight:bold;font-stretch:normal;text-align:start;writing-mode:lr-tb;text-anchor:start;fill:#333333;fill-opacity:1;font-family:Corbel;-inkscape-font-specification:Corbel Bold"
       id="path3928" />
    <path
       inkscape:connector-curvature="0"
       d="m 1069.2031,251.17344 -1.4062,0 c -5.1094,5e-5 -9.6094,0.77349 -13.5,2.32031 -3.8438,1.50005 -6.8204,3.82036 -8.9297,6.96094 l 0,45.63281 -16.6641,0 0,-68.13281 13.7813,0 1.5469,9.49218 0.2812,0 c 1.9687,-3.46868 4.664,-6.18743 8.0859,-8.15625 3.4688,-2.01555 7.6172,-3.02336 12.4454,-3.02343 1.6874,7e-5 3.1405,0.0938 4.3593,0.28125 l 0,14.625"
       style="font-size:144px;font-variant:normal;font-weight:bold;font-stretch:normal;text-align:start;writing-mode:lr-tb;text-anchor:start;fill:#333333;fill-opacity:1;font-family:Corbel;-inkscape-font-specification:Corbel Bold"
       id="path3930" />
    <path
       inkscape:connector-curvature="0"
       d="m 1159.3438,280.84531 c 2.0624,-7.40621 4.6171,-15.35152 7.664,-23.83594 l 16.2422,-45 24.1875,0 0,94.07813 -17.2266,0 0,-47.67188 c -10e-5,-6.98432 0.2812,-15.09368 0.8438,-24.32812 l -0.6328,0 c -0.797,2.67194 -1.7345,5.67194 -2.8125,9 -1.0782,3.32818 -2.2032,6.60943 -3.375,9.84375 l -19.4766,53.15625 -11.1094,0 -19.4765,-53.15625 c -1.1719,-3.23432 -2.2969,-6.51557 -3.375,-9.84375 -1.0782,-3.32806 -2.0157,-6.32806 -2.8125,-9 l -0.6328,0 c 0.5624,8.67194 0.8437,16.75787 0.8437,24.25781 l 0,47.74219 -17.2265,0 0,-94.07813 24.0468,0 16.2422,44.78907 c 2.7187,7.45316 5.2734,15.46878 7.6641,24.04687 l 0.4219,0"
       style="font-size:144px;font-variant:normal;font-weight:bold;font-stretch:normal;text-align:start;writing-mode:lr-tb;text-anchor:start;fill:#333333;fill-opacity:1;font-family:Corbel;-inkscape-font-specification:Corbel Bold"
       id="path3932" />
    <path
       inkscape:connector-curvature="0"
       d="m 1267.9063,298.84531 -0.2813,0 c -0.9375,0.98438 -2.0625,1.9922 -3.375,3.02344 -1.3125,1.03125 -2.8125,2.01563 -4.5,2.95312 -1.6875,0.89063 -3.5625,1.61719 -5.625,2.17969 -2.0625,0.5625 -4.2891,0.84375 -6.6797,0.84375 -3.2344,0 -6.2578,-0.51562 -9.0703,-1.54687 -2.8125,-0.98438 -5.2266,-2.41406 -7.2422,-4.28907 -2.0156,-1.92186 -3.6094,-4.21874 -4.7812,-6.89062 -1.125,-2.71874 -1.6875,-5.74217 -1.6875,-9.07031 0,-3.65623 0.6562,-6.93748 1.9687,-9.84375 1.3594,-2.90622 3.2344,-5.36715 5.625,-7.38282 2.3906,-2.01558 5.25,-3.53902 8.5781,-4.57031 3.3281,-1.07808 7.0078,-1.61714 11.0391,-1.61719 2.9531,5e-5 5.6718,0.18755 8.1563,0.5625 2.4843,0.37505 4.664,0.82036 6.539,1.33594 l 0,-2.74219 c 0,-1.5937 -0.2813,-3.11714 -0.8437,-4.57031 -0.5157,-1.49995 -1.3829,-2.81245 -2.6016,-3.9375 -1.1719,-1.17182 -2.7188,-2.08588 -4.6406,-2.74219 -1.9219,-0.70306 -4.2657,-1.05463 -7.0313,-1.05468 -3.375,5e-5 -6.75,0.37505 -10.125,1.125 -3.375,0.75005 -7.0312,1.87505 -10.9687,3.375 l 0,-13.00782 c 3.4218,-1.49993 7.0546,-2.64836 10.8984,-3.44531 3.8437,-0.7968 7.875,-1.21868 12.0938,-1.26562 4.9687,7e-5 9.3046,0.60944 13.0078,1.82812 3.7499,1.21882 6.8671,2.90632 9.3515,5.0625 2.5312,2.10944 4.4062,4.61725 5.625,7.52344 1.2656,2.9063 1.8984,6.07036 1.8985,9.49219 l 0,25.66406 c -10e-5,4.50002 0.047,8.3672 0.1406,11.60156 0.094,3.23438 0.1874,6.11719 0.2813,8.64844 l -15.0469,0 -0.7031,-7.24219 m -1.336,-21.79687 c -1.5938,-0.37497 -3.4219,-0.7031 -5.4844,-0.98438 -2.0625,-0.32809 -4.1484,-0.49215 -6.2578,-0.49219 -4.0781,4e-5 -7.3125,0.82035 -9.7031,2.46094 -2.3438,1.59378 -3.5156,4.05471 -3.5156,7.38281 0,1.5469 0.2578,2.90627 0.7734,4.07813 0.5625,1.12502 1.2891,2.06251 2.1797,2.8125 0.9375,0.75001 2.0156,1.31251 3.2344,1.6875 1.2187,0.37501 2.5078,0.56251 3.8672,0.5625 1.6874,1e-5 3.2812,-0.21093 4.7812,-0.63281 1.5,-0.46874 2.8828,-1.03124 4.1485,-1.6875 1.2655,-0.70311 2.3905,-1.47655 3.375,-2.32032 1.0312,-0.84373 1.8983,-1.66404 2.6015,-2.46093 l 0,-10.40625"
       style="font-size:144px;font-variant:normal;font-weight:bold;font-stretch:normal;text-align:start;writing-mode:lr-tb;text-anchor:start;fill:#333333;fill-opacity:1;font-family:Corbel;-inkscape-font-specification:Corbel Bold"
       id="path3934" />
    <path
       inkscape:connector-curvature="0"
       d="m 1362.9688,237.95469 -26.3672,68.13281 -16.5235,0 -26.4375,-68.13281 17.5782,0 9.4921,26.01562 c 2.7188,7.31254 5.2031,14.62503 7.4532,21.9375 l 0.2812,0 c 1.9687,-6.3281 4.4062,-13.49996 7.3125,-21.51562 l 9.4922,-26.4375 17.7188,0"
       style="font-size:144px;font-variant:normal;font-weight:bold;font-stretch:normal;text-align:start;writing-mode:lr-tb;text-anchor:start;fill:#333333;fill-opacity:1;font-family:Corbel;-inkscape-font-specification:Corbel Bold"
       id="path3936" />
    <path
       inkscape:connector-curvature="0"
       d="m 1408.0391,294.41562 c 3.2343,2e-5 6.6093,-0.32811 10.125,-0.98437 3.5155,-0.65624 7.078,-1.59374 10.6875,-2.8125 l 0,13.28906 c -2.1564,0.9375 -5.461,1.82813 -9.9141,2.67188 -4.4532,0.84375 -9.0704,1.26562 -13.8516,1.26562 -4.8281,0 -9.4219,-0.60937 -13.7812,-1.82812 -4.3125,-1.26563 -8.086,-3.28125 -11.3203,-6.04688 -3.2344,-2.76561 -5.8125,-6.35155 -7.7344,-10.75781 -1.875,-4.40623 -2.8125,-9.74997 -2.8125,-16.03125 0,-6.18746 0.8906,-11.60152 2.6719,-16.24219 1.7812,-4.64057 4.1718,-8.48431 7.1719,-11.53125 2.9999,-3.04681 6.4218,-5.32024 10.2656,-6.82031 3.8906,-1.54681 7.8984,-2.32024 12.0234,-2.32031 4.3125,7e-5 8.2734,0.65632 11.8828,1.96875 3.6562,1.31256 6.7968,3.37506 9.4219,6.1875 2.6718,2.81256 4.7343,6.44537 6.1875,10.89843 1.4999,4.4063 2.2499,9.63286 2.25,15.67969 -0.047,2.34379 -0.1173,4.33597 -0.2109,5.97656 l -44.6485,0 c 0.2344,3.14066 0.9375,5.83597 2.1094,8.08594 1.1718,2.20315 2.6953,4.00783 4.5703,5.41406 1.9219,1.35939 4.1484,2.36721 6.6797,3.02344 2.5312,0.60939 5.2734,0.91408 8.2266,0.91406 m -6.6797,-45.14062 c -2.1094,6e-5 -3.9844,0.39849 -5.625,1.19531 -1.6407,0.75006 -3.0704,1.80474 -4.2891,3.16406 -1.1719,1.31256 -2.1094,2.85943 -2.8125,4.64063 -0.7031,1.7813 -1.1719,3.67973 -1.4062,5.69531 l 26.789,0 c 0,-2.01558 -0.2813,-3.91401 -0.8437,-5.69531 -0.5157,-1.7812 -1.3126,-3.32807 -2.3906,-4.64063 -1.0313,-1.35932 -2.3438,-2.414 -3.9375,-3.16406 -1.547,-0.79682 -3.3751,-1.19525 -5.4844,-1.19531"
       style="font-size:144px;font-variant:normal;font-weight:bold;font-stretch:normal;text-align:start;writing-mode:lr-tb;text-anchor:start;fill:#333333;fill-opacity:1;font-family:Corbel;-inkscape-font-specification:Corbel Bold"
       id="path3938" />
    <path
       inkscape:connector-curvature="0"
       d="m 1462.25,247.44687 0.2813,0 c 0.9843,-1.40618 2.2265,-2.789 3.7265,-4.14843 1.5,-1.35931 3.2109,-2.55462 5.1328,-3.58594 1.9219,-1.03118 4.0312,-1.85149 6.3282,-2.46094 2.3437,-0.65618 4.828,-0.9843 7.4531,-0.98437 2.4843,7e-5 4.8749,0.28132 7.1719,0.84375 2.3436,0.56257 4.4765,1.45319 6.3984,2.67187 1.9218,1.17194 3.6093,2.71882 5.0625,4.64063 1.4999,1.87506 2.6718,4.12506 3.5156,6.75 0.4687,1.45318 0.7734,3.04692 0.9141,4.78125 0.1874,1.68755 0.2812,3.65629 0.2812,5.90625 l 0,44.22656 -16.664,0 0,-41.625 c -10e-5,-1.82808 -0.07,-3.39839 -0.211,-4.71094 -0.1407,-1.31245 -0.3985,-2.46089 -0.7734,-3.44531 -0.8438,-2.1562 -2.1329,-3.70307 -3.8672,-4.64063 -1.6875,-0.93744 -3.75,-1.40619 -6.1875,-1.40625 -3.2344,6e-5 -6.3516,0.7735 -9.3516,2.32032 -2.9531,1.50005 -5.5781,3.70317 -7.875,6.60937 l 0,46.89844 -16.664,0 0,-68.13281 13.7812,0 1.5469,9.49218"
       style="font-size:144px;font-variant:normal;font-weight:bold;font-stretch:normal;text-align:start;writing-mode:lr-tb;text-anchor:start;fill:#333333;fill-opacity:1;font-family:Corbel;-inkscape-font-specification:Corbel Bold"
       id="path3940" />
  </g>
  <g
     transform="matrix(1.03111,0,0,1.2683161,3.0875358,-231.3725)"
     style="font-size:40px;font-style:normal;font-weight:normal;line-height:125%;letter-spacing:0px;word-spacing:0px;fill:#ffffff;fill-opacity:1;stroke:none;font-family:Sans"
     id="flowRoot3868">
    <path
       inkscape:connector-curvature="0"
       d="m 514.71875,249.62656 c -2.90629,0.0469 -5.67191,0.7735 -8.29688,2.17969 -2.62503,1.35943 -4.94534,3.21099 -6.96093,5.55469 l 0,30.375 c 0.7031,0.79689 1.54685,1.59376 2.53125,2.39062 0.98434,0.79689 2.0859,1.52345 3.30468,2.17969 1.21872,0.65626 2.55466,1.19533 4.00782,1.61719 1.49996,0.42188 3.04683,0.63282 4.64062,0.63281 2.57808,1e-5 4.87496,-0.53905 6.89063,-1.61719 2.01557,-1.12498 3.67963,-2.69529 4.99218,-4.71094 1.35933,-2.0156 2.39058,-4.40622 3.09375,-7.17187 0.70307,-2.81247 1.05464,-5.92966 1.05469,-9.35156 -5e-5,-3.65621 -0.37505,-6.86715 -1.125,-9.63282 -0.70318,-2.76557 -1.73443,-5.06245 -3.09375,-6.89062 -1.31255,-1.82807 -2.9063,-3.21088 -4.78125,-4.14844 -1.87504,-0.93744 -3.96098,-1.40619 -6.25781,-1.40625 m 2.17969,58.21875 c -3.65629,0 -6.98441,-0.65625 -9.98438,-1.96875 -2.95315,-1.35937 -5.41409,-3.02343 -7.38281,-4.99219 l -0.28125,0 c 0.0469,0.93751 0.0937,2.27345 0.14062,4.00782 0.0469,1.6875 0.0703,3.53906 0.0703,5.55468 l 0,28.33594 -16.66407,0 0,-100.82812 14.625,0 0.70313,7.66406 0.28125,0 c 2.06247,-2.71869 4.71091,-4.94525 7.94531,-6.67969 3.23434,-1.78118 6.98434,-2.6718 11.25,-2.67187 3.70308,7e-5 7.33589,0.70319 10.89844,2.10937 3.60932,1.35944 6.79681,3.46882 9.5625,6.32813 2.76556,2.85943 4.96868,6.4688 6.60937,10.82812 1.68743,4.35942 2.53118,9.53911 2.53125,15.53906 -7e-5,6.32816 -0.89069,11.81253 -2.67187,16.45313 -1.78132,4.59376 -4.12507,8.41407 -7.03125,11.46094 -2.90631,3 -6.14068,5.22656 -9.70313,6.67968 -3.51567,1.45313 -7.14848,2.17969 -10.89843,2.17969"
       style="font-size:144px;font-variant:normal;font-weight:bold;font-stretch:normal;text-align:start;writing-mode:lr-tb;text-anchor:start;fill:#ffffff;font-family:Corbel;-inkscape-font-specification:Corbel Bold"
       id="path3885" />
    <path
       inkscape:connector-curvature="0"
       d="m 562.8125,306.0875 0,-101.8125 16.66406,0 0,101.8125 -16.66406,0"
       style="font-size:144px;font-variant:normal;font-weight:bold;font-stretch:normal;text-align:start;writing-mode:lr-tb;text-anchor:start;fill:#ffffff;font-family:Corbel;-inkscape-font-specification:Corbel Bold"
       id="path3887" />
    <path
       inkscape:connector-curvature="0"
       d="m 628.48437,307.84531 c -6.84378,0 -12.51565,-1.14844 -17.01562,-3.44531 -4.50002,-2.34375 -7.89845,-5.48437 -10.19531,-9.42188 -1.21876,-2.10936 -2.13282,-4.42967 -2.74219,-6.96093 -0.56251,-2.53123 -0.84376,-5.34373 -0.84375,-8.4375 l 0,-41.625 16.66406,0 0,39.86718 c -2e-5,2.29691 0.16404,4.28909 0.49219,5.97657 0.3281,1.64064 0.82029,3.07033 1.47656,4.28906 1.12497,2.06252 2.71872,3.60939 4.78125,4.64062 2.06247,0.98439 4.5234,1.47658 7.38281,1.47657 2.99996,10e-6 5.55465,-0.56249 7.66407,-1.6875 2.1562,-1.12499 3.77338,-2.83592 4.85156,-5.13282 1.07807,-2.2031 1.61713,-5.27341 1.61719,-9.21093 l 0,-40.21875 16.66406,0 0,41.625 c -7e-5,5.53127 -0.96101,10.19533 -2.88281,13.99218 -1.07819,2.15627 -2.48444,4.12501 -4.21875,5.90625 -1.68756,1.73438 -3.70319,3.23438 -6.04688,4.5 -2.29693,1.21876 -4.92192,2.15625 -7.875,2.8125 -2.90629,0.70313 -6.1641,1.05469 -9.77344,1.05469"
       style="font-size:144px;font-variant:normal;font-weight:bold;font-stretch:normal;text-align:start;writing-mode:lr-tb;text-anchor:start;fill:#ffffff;font-family:Corbel;-inkscape-font-specification:Corbel Bold"
       id="path3889" />
    <path
       inkscape:connector-curvature="0"
       d="m 721.08594,307.84531 c -6e-5,-0.9375 -6e-5,-2.08593 0,-3.44531 0.0468,-1.40625 0.11713,-2.57812 0.21093,-3.51563 l -0.14062,0 c -1.0313,0.84376 -2.22661,1.68751 -3.58594,2.53125 -1.31255,0.79688 -2.76567,1.54688 -4.35937,2.25 -1.5938,0.65625 -3.35161,1.17188 -5.27344,1.54688 -1.92191,0.42187 -3.89066,0.63281 -5.90625,0.63281 -3.60941,0 -7.14846,-0.63281 -10.61719,-1.89844 -3.42189,-1.31249 -6.46876,-3.35155 -9.14062,-6.11718 -2.67189,-2.81249 -4.82814,-6.39843 -6.46875,-10.75782 -1.64063,-4.35935 -2.46095,-9.60934 -2.46094,-15.75 -10e-6,-6.14058 0.82031,-11.50776 2.46094,-16.10156 1.68749,-4.64057 3.91405,-8.50775 6.67968,-11.60156 2.76561,-3.09369 5.92967,-5.414 9.49219,-6.96094 3.60935,-1.59368 7.31247,-2.39055 11.10938,-2.39062 4.17183,7e-5 7.87495,0.89069 11.10937,2.67187 3.23433,1.73444 5.88276,3.961 7.94531,6.67969 l 0.28125,0 0.70313,-7.66406 14.625,0 0,69.39843 c -7e-5,3.98437 -0.32819,7.40625 -0.98438,10.26563 -0.65631,2.85936 -1.61725,5.39061 -2.88281,7.59375 -1.50006,2.5781 -3.42194,4.8281 -5.76562,6.75 -2.29694,1.92185 -4.94537,3.5156 -7.94532,4.78125 -2.95317,1.26559 -6.21098,2.20309 -9.77343,2.8125 -3.56254,0.65622 -7.33598,0.98434 -11.32032,0.98437 -2.25002,-3e-5 -4.45315,-0.0938 -6.60937,-0.28125 -2.15627,-0.14065 -4.19533,-0.37503 -6.11719,-0.70312 -1.87501,-0.28128 -3.60939,-0.63285 -5.20312,-1.05469 -1.54689,-0.37503 -2.85939,-0.77347 -3.9375,-1.19531 l 0,-13.57031 c 3.09373,1.03123 6.32811,1.80467 9.70312,2.32031 3.42185,0.56248 7.00779,0.84373 10.75781,0.84375 7.45309,-2e-5 13.21871,-1.45314 17.29688,-4.35938 4.07807,-2.85938 6.11713,-7.21875 6.11719,-13.07812 l 0,-1.61719 m -14.90625,-13.28906 c 1.68746,1e-5 3.28121,-0.21093 4.78125,-0.63281 1.49995,-0.42186 2.88276,-0.96093 4.14843,-1.61719 1.26558,-0.65624 2.39058,-1.3828 3.375,-2.17969 1.0312,-0.79686 1.89839,-1.59373 2.60157,-2.39062 l 0,-30.44532 c -1.7813,-2.10932 -3.98443,-3.86713 -6.60938,-5.27343 -2.62504,-1.4062 -5.4141,-2.13276 -8.36719,-2.17969 -1.03128,6e-5 -2.13284,0.14068 -3.30468,0.42187 -1.12504,0.23444 -2.27347,0.67975 -3.44532,1.33594 -1.1719,0.65631 -2.2969,1.54693 -3.375,2.67188 -1.03127,1.07817 -1.94533,2.46098 -2.74218,4.14843 -0.7969,1.68755 -1.45315,3.70317 -1.96875,6.04688 -0.46878,2.34379 -0.70315,5.06254 -0.70313,8.15625 -2e-5,3.42191 0.3281,6.49221 0.98438,9.21094 0.65622,2.67189 1.6406,4.96877 2.95312,6.89062 1.31247,1.87502 2.92966,3.32814 4.85156,4.35938 1.96872,0.98438 4.24216,1.47657 6.82032,1.47656"
       style="font-size:144px;font-variant:normal;font-weight:bold;font-stretch:normal;text-align:start;writing-mode:lr-tb;text-anchor:start;fill:#ffffff;font-family:Corbel;-inkscape-font-specification:Corbel Bold"
       id="path3891" />
    <path
       inkscape:connector-curvature="0"
       d="m 756.59375,237.95469 16.66406,0 0,68.13281 -16.66406,0 0,-68.13281 m -0.42188,-33.67969 17.50782,0 0,18.07031 -17.50782,0 0,-18.07031"
       style="font-size:144px;font-variant:normal;font-weight:bold;font-stretch:normal;text-align:start;writing-mode:lr-tb;text-anchor:start;fill:#ffffff;font-family:Corbel;-inkscape-font-specification:Corbel Bold"
       id="path3893" />
    <path
       inkscape:connector-curvature="0"
       d="m 807.21875,247.44687 0.28125,0 c 0.98435,-1.40618 2.22654,-2.789 3.72656,-4.14843 1.49997,-1.35931 3.21091,-2.55462 5.13281,-3.58594 1.92184,-1.03118 4.03122,-1.85149 6.32813,-2.46094 2.34371,-0.65618 4.82808,-0.9843 7.45312,-0.98437 2.48433,7e-5 4.87495,0.28132 7.17188,0.84375 2.34369,0.56257 4.4765,1.45319 6.39844,2.67187 1.92181,1.17194 3.60931,2.71882 5.0625,4.64063 1.49993,1.87506 2.6718,4.12506 3.51562,6.75 0.46868,1.45318 0.77337,3.04692 0.91406,4.78125 0.18743,1.68755 0.28118,3.65629 0.28125,5.90625 l 0,44.22656 -16.66406,0 0,-41.625 c -5e-5,-1.82808 -0.0704,-3.39839 -0.21094,-4.71094 -0.14067,-1.31245 -0.39849,-2.46089 -0.77343,-3.44531 -0.8438,-2.1562 -2.13287,-3.70307 -3.86719,-4.64063 -1.68755,-0.93744 -3.75005,-1.40619 -6.1875,-1.40625 -3.23441,6e-5 -6.3516,0.7735 -9.35156,2.32032 -2.95316,1.50005 -5.57816,3.70317 -7.875,6.60937 l 0,46.89844 -16.66407,0 0,-68.13281 13.78125,0 1.54688,9.49218"
       style="font-size:144px;font-variant:normal;font-weight:bold;font-stretch:normal;text-align:start;writing-mode:lr-tb;text-anchor:start;fill:#ffffff;font-family:Corbel;-inkscape-font-specification:Corbel Bold"
       id="path3895" />
    <path
       inkscape:connector-curvature="0"
       d="m 944.25781,217.775 c -1.82817,-0.46866 -3.72661,-0.84366 -5.69531,-1.125 -1.92192,-0.32804 -3.75004,-0.4921 -5.48438,-0.49219 -1.87503,9e-5 -3.53909,0.23447 -4.99218,0.70313 -1.45316,0.42196 -2.69535,1.14852 -3.72657,2.17968 -0.9844,1.03134 -1.7344,2.36728 -2.25,4.00782 -0.51565,1.6407 -0.77346,3.63289 -0.77343,5.97656 l 0,8.92969 18.91406,0 0,13.71093 -18.91406,0 0,54.42188 -16.66407,0 0,-54.42188 -11.53125,0 0,-13.71093 11.53125,0 0,-8.08594 c -10e-6,-4.78117 0.65624,-8.88273 1.96875,-12.30469 1.35936,-3.46866 3.23436,-6.30459 5.625,-8.50781 2.39061,-2.2499 5.2031,-3.89052 8.4375,-4.92188 3.23435,-1.07802 6.74997,-1.61708 10.54688,-1.61718 2.34371,1e-4 4.66402,0.21104 6.96094,0.63281 2.3437,0.3751 4.35932,0.84385 6.04687,1.40625 l 0,13.21875"
       style="font-size:144px;font-variant:normal;font-weight:bold;font-stretch:normal;text-align:start;writing-mode:lr-tb;text-anchor:start;fill:#ffffff;font-family:Corbel;-inkscape-font-specification:Corbel Bold"
       id="path3897" />
    <path
       inkscape:connector-curvature="0"
       d="m 996.57031,272.05625 c -5e-5,-3.60934 -0.42193,-6.79683 -1.26562,-9.5625 -0.84381,-2.76558 -2.01568,-5.08589 -3.51563,-6.96094 -1.50005,-1.87495 -3.30473,-3.28119 -5.41406,-4.21875 -2.10942,-0.93744 -4.40629,-1.40619 -6.89063,-1.40625 -2.43753,6e-5 -4.71097,0.46881 -6.82031,1.40625 -2.06253,0.93756 -3.84378,2.3438 -5.34375,4.21875 -1.50002,1.87505 -2.6719,4.19536 -3.51562,6.96094 -0.84378,2.76567 -1.26565,5.95316 -1.26563,9.5625 -2e-5,3.60941 0.42185,6.7969 1.26563,9.5625 0.84372,2.76565 2.0156,5.08596 3.51562,6.96094 1.54685,1.82814 3.35153,3.23439 5.41406,4.21875 2.10934,0.93751 4.40622,1.40626 6.89063,1.40625 2.48433,10e-6 4.75777,-0.46874 6.82031,-1.40625 2.06245,-0.98436 3.8437,-2.39061 5.34375,-4.21875 1.49995,-1.87498 2.67182,-4.19529 3.51563,-6.96094 0.84369,-2.7656 1.26557,-5.95309 1.26562,-9.5625 m 17.22659,0 c -1e-4,5.34378 -0.797,10.21877 -2.3907,14.625 -1.5938,4.40626 -3.8906,8.1797 -6.8906,11.32031 -2.9532,3.14063 -6.5391,5.57813 -10.75779,7.3125 -4.2188,1.6875 -8.92973,2.53125 -14.13281,2.53125 -5.34378,0 -10.14847,-0.84375 -14.41406,-2.53125 -4.21877,-1.73437 -7.80471,-4.17187 -10.75782,-7.3125 -2.95313,-3.14061 -5.22657,-6.91405 -6.82031,-11.32031 -1.54688,-4.40623 -2.32032,-9.28122 -2.32031,-14.625 -10e-6,-5.34371 0.79687,-10.21871 2.39062,-14.625 1.59375,-4.4062 3.86718,-8.17963 6.82032,-11.32031 2.99998,-3.14056 6.60935,-5.55462 10.82812,-7.24219 4.21872,-1.73431 8.92966,-2.60149 14.13281,-2.60156 5.34371,7e-5 10.12496,0.86725 14.34375,2.60156 4.26557,1.68757 7.87498,4.10163 10.82808,7.24219 2.9531,3.14068 5.2031,6.91411 6.75,11.32031 1.5937,4.40629 2.3906,9.28129 2.3907,14.625"
       style="font-size:144px;font-variant:normal;font-weight:bold;font-stretch:normal;text-align:start;writing-mode:lr-tb;text-anchor:start;fill:#ffffff;font-family:Corbel;-inkscape-font-specification:Corbel Bold"
       id="path3899" />
    <path
       inkscape:connector-curvature="0"
       d="m 1069.2031,251.17344 -1.4062,0 c -5.1094,5e-5 -9.6094,0.77349 -13.5,2.32031 -3.8438,1.50005 -6.8204,3.82036 -8.9297,6.96094 l 0,45.63281 -16.6641,0 0,-68.13281 13.7813,0 1.5469,9.49218 0.2812,0 c 1.9687,-3.46868 4.664,-6.18743 8.0859,-8.15625 3.4688,-2.01555 7.6172,-3.02336 12.4454,-3.02343 1.6874,7e-5 3.1405,0.0938 4.3593,0.28125 l 0,14.625"
       style="font-size:144px;font-variant:normal;font-weight:bold;font-stretch:normal;text-align:start;writing-mode:lr-tb;text-anchor:start;fill:#ffffff;font-family:Corbel;-inkscape-font-specification:Corbel Bold"
       id="path3901" />
    <path
       inkscape:connector-curvature="0"
       d="m 1159.3438,280.84531 c 2.0624,-7.40621 4.6171,-15.35152 7.664,-23.83594 l 16.2422,-45 24.1875,0 0,94.07813 -17.2266,0 0,-47.67188 c -10e-5,-6.98432 0.2812,-15.09368 0.8438,-24.32812 l -0.6328,0 c -0.797,2.67194 -1.7345,5.67194 -2.8125,9 -1.0782,3.32818 -2.2032,6.60943 -3.375,9.84375 l -19.4766,53.15625 -11.1094,0 -19.4765,-53.15625 c -1.1719,-3.23432 -2.2969,-6.51557 -3.375,-9.84375 -1.0782,-3.32806 -2.0157,-6.32806 -2.8125,-9 l -0.6328,0 c 0.5624,8.67194 0.8437,16.75787 0.8437,24.25781 l 0,47.74219 -17.2265,0 0,-94.07813 24.0468,0 16.2422,44.78907 c 2.7187,7.45316 5.2734,15.46878 7.6641,24.04687 l 0.4219,0"
       style="font-size:144px;font-variant:normal;font-weight:bold;font-stretch:normal;text-align:start;writing-mode:lr-tb;text-anchor:start;fill:#ffffff;font-family:Corbel;-inkscape-font-specification:Corbel Bold"
       id="path3903" />
    <path
       inkscape:connector-curvature="0"
       d="m 1267.9063,298.84531 -0.2813,0 c -0.9375,0.98438 -2.0625,1.9922 -3.375,3.02344 -1.3125,1.03125 -2.8125,2.01563 -4.5,2.95312 -1.6875,0.89063 -3.5625,1.61719 -5.625,2.17969 -2.0625,0.5625 -4.2891,0.84375 -6.6797,0.84375 -3.2344,0 -6.2578,-0.51562 -9.0703,-1.54687 -2.8125,-0.98438 -5.2266,-2.41406 -7.2422,-4.28907 -2.0156,-1.92186 -3.6094,-4.21874 -4.7812,-6.89062 -1.125,-2.71874 -1.6875,-5.74217 -1.6875,-9.07031 0,-3.65623 0.6562,-6.93748 1.9687,-9.84375 1.3594,-2.90622 3.2344,-5.36715 5.625,-7.38282 2.3906,-2.01558 5.25,-3.53902 8.5781,-4.57031 3.3281,-1.07808 7.0078,-1.61714 11.0391,-1.61719 2.9531,5e-5 5.6718,0.18755 8.1563,0.5625 2.4843,0.37505 4.664,0.82036 6.539,1.33594 l 0,-2.74219 c 0,-1.5937 -0.2813,-3.11714 -0.8437,-4.57031 -0.5157,-1.49995 -1.3829,-2.81245 -2.6016,-3.9375 -1.1719,-1.17182 -2.7188,-2.08588 -4.6406,-2.74219 -1.9219,-0.70306 -4.2657,-1.05463 -7.0313,-1.05468 -3.375,5e-5 -6.75,0.37505 -10.125,1.125 -3.375,0.75005 -7.0312,1.87505 -10.9687,3.375 l 0,-13.00782 c 3.4218,-1.49993 7.0546,-2.64836 10.8984,-3.44531 3.8437,-0.7968 7.875,-1.21868 12.0938,-1.26562 4.9687,7e-5 9.3046,0.60944 13.0078,1.82812 3.7499,1.21882 6.8671,2.90632 9.3515,5.0625 2.5312,2.10944 4.4062,4.61725 5.625,7.52344 1.2656,2.9063 1.8984,6.07036 1.8985,9.49219 l 0,25.66406 c -10e-5,4.50002 0.047,8.3672 0.1406,11.60156 0.094,3.23438 0.1874,6.11719 0.2813,8.64844 l -15.0469,0 -0.7031,-7.24219 m -1.336,-21.79687 c -1.5938,-0.37497 -3.4219,-0.7031 -5.4844,-0.98438 -2.0625,-0.32809 -4.1484,-0.49215 -6.2578,-0.49219 -4.0781,4e-5 -7.3125,0.82035 -9.7031,2.46094 -2.3438,1.59378 -3.5156,4.05471 -3.5156,7.38281 0,1.5469 0.2578,2.90627 0.7734,4.07813 0.5625,1.12502 1.2891,2.06251 2.1797,2.8125 0.9375,0.75001 2.0156,1.31251 3.2344,1.6875 1.2187,0.37501 2.5078,0.56251 3.8672,0.5625 1.6874,1e-5 3.2812,-0.21093 4.7812,-0.63281 1.5,-0.46874 2.8828,-1.03124 4.1485,-1.6875 1.2655,-0.70311 2.3905,-1.47655 3.375,-2.32032 1.0312,-0.84373 1.8983,-1.66404 2.6015,-2.46093 l 0,-10.40625"
       style="font-size:144px;font-variant:normal;font-weight:bold;font-stretch:normal;text-align:start;writing-mode:lr-tb;text-anchor:start;fill:#ffffff;font-family:Corbel;-inkscape-font-specification:Corbel Bold"
       id="path3905" />
    <path
       inkscape:connector-curvature="0"
       d="m 1362.9688,237.95469 -26.3672,68.13281 -16.5235,0 -26.4375,-68.13281 17.5782,0 9.4921,26.01562 c 2.7188,7.31254 5.2031,14.62503 7.4532,21.9375 l 0.2812,0 c 1.9687,-6.3281 4.4062,-13.49996 7.3125,-21.51562 l 9.4922,-26.4375 17.7188,0"
       style="font-size:144px;font-variant:normal;font-weight:bold;font-stretch:normal;text-align:start;writing-mode:lr-tb;text-anchor:start;fill:#ffffff;font-family:Corbel;-inkscape-font-specification:Corbel Bold"
       id="path3907" />
    <path
       inkscape:connector-curvature="0"
       d="m 1408.0391,294.41562 c 3.2343,2e-5 6.6093,-0.32811 10.125,-0.98437 3.5155,-0.65624 7.078,-1.59374 10.6875,-2.8125 l 0,13.28906 c -2.1564,0.9375 -5.461,1.82813 -9.9141,2.67188 -4.4532,0.84375 -9.0704,1.26562 -13.8516,1.26562 -4.8281,0 -9.4219,-0.60937 -13.7812,-1.82812 -4.3125,-1.26563 -8.086,-3.28125 -11.3203,-6.04688 -3.2344,-2.76561 -5.8125,-6.35155 -7.7344,-10.75781 -1.875,-4.40623 -2.8125,-9.74997 -2.8125,-16.03125 0,-6.18746 0.8906,-11.60152 2.6719,-16.24219 1.7812,-4.64057 4.1718,-8.48431 7.1719,-11.53125 2.9999,-3.04681 6.4218,-5.32024 10.2656,-6.82031 3.8906,-1.54681 7.8984,-2.32024 12.0234,-2.32031 4.3125,7e-5 8.2734,0.65632 11.8828,1.96875 3.6562,1.31256 6.7968,3.37506 9.4219,6.1875 2.6718,2.81256 4.7343,6.44537 6.1875,10.89843 1.4999,4.4063 2.2499,9.63286 2.25,15.67969 -0.047,2.34379 -0.1173,4.33597 -0.2109,5.97656 l -44.6485,0 c 0.2344,3.14066 0.9375,5.83597 2.1094,8.08594 1.1718,2.20315 2.6953,4.00783 4.5703,5.41406 1.9219,1.35939 4.1484,2.36721 6.6797,3.02344 2.5312,0.60939 5.2734,0.91408 8.2266,0.91406 m -6.6797,-45.14062 c -2.1094,6e-5 -3.9844,0.39849 -5.625,1.19531 -1.6407,0.75006 -3.0704,1.80474 -4.2891,3.16406 -1.1719,1.31256 -2.1094,2.85943 -2.8125,4.64063 -0.7031,1.7813 -1.1719,3.67973 -1.4062,5.69531 l 26.789,0 c 0,-2.01558 -0.2813,-3.91401 -0.8437,-5.69531 -0.5157,-1.7812 -1.3126,-3.32807 -2.3906,-4.64063 -1.0313,-1.35932 -2.3438,-2.414 -3.9375,-3.16406 -1.547,-0.79682 -3.3751,-1.19525 -5.4844,-1.19531"
       style="font-size:144px;font-variant:normal;font-weight:bold;font-stretch:normal;text-align:start;writing-mode:lr-tb;text-anchor:start;fill:#ffffff;font-family:Corbel;-inkscape-font-specification:Corbel Bold"
       id="path3909" />
    <path
       inkscape:connector-curvature="0"
       d="m 1462.25,247.44687 0.2813,0 c 0.9843,-1.40618 2.2265,-2.789 3.7265,-4.14843 1.5,-1.35931 3.2109,-2.55462 5.1328,-3.58594 1.9219,-1.03118 4.0312,-1.85149 6.3282,-2.46094 2.3437,-0.65618 4.828,-0.9843 7.4531,-0.98437 2.4843,7e-5 4.8749,0.28132 7.1719,0.84375 2.3436,0.56257 4.4765,1.45319 6.3984,2.67187 1.9218,1.17194 3.6093,2.71882 5.0625,4.64063 1.4999,1.87506 2.6718,4.12506 3.5156,6.75 0.4687,1.45318 0.7734,3.04692 0.9141,4.78125 0.1874,1.68755 0.2812,3.65629 0.2812,5.90625 l 0,44.22656 -16.664,0 0,-41.625 c -10e-5,-1.82808 -0.07,-3.39839 -0.211,-4.71094 -0.1407,-1.31245 -0.3985,-2.46089 -0.7734,-3.44531 -0.8438,-2.1562 -2.1329,-3.70307 -3.8672,-4.64063 -1.6875,-0.93744 -3.75,-1.40619 -6.1875,-1.40625 -3.2344,6e-5 -6.3516,0.7735 -9.3516,2.32032 -2.9531,1.50005 -5.5781,3.70317 -7.875,6.60937 l 0,46.89844 -16.664,0 0,-68.13281 13.7812,0 1.5469,9.49218"
       style="font-size:144px;font-variant:normal;font-weight:bold;font-stretch:normal;text-align:start;writing-mode:lr-tb;text-anchor:start;fill:#ffffff;font-family:Corbel;-inkscape-font-specification:Corbel Bold"
       id="path3911" />
  </g>
</svg>
